<svg id="Layer_1" data-name="Layer 1" xmlns="http://www.w3.org/2000/svg" viewBox="0 0 300 65"><defs><style>.cls-1{fill:#fff;}</style></defs><title>footer</title><path class="cls-1" d="M300,27.59h-5.66c-.27-1.12-.53-2.22-.8-3.32q-.81-3.43-1.63-6.87a2.93,2.93,0,0,0-2.73-2.22c-1.87,0-3.73,0-5.64,0V27.58h-5.05V.07l.43,0h12.83A6.82,6.82,0,0,1,297.64,4a5.74,5.74,0,0,1,.28,2.25,16.08,16.08,0,0,1-.07,2.6,4.37,4.37,0,0,1-3,3.35,25.27,25.27,0,0,1-2.45.73l.27.06a5.21,5.21,0,0,1,4.46,3.65c.24.8.43,1.62.64,2.44l2.13,8.14a2.88,2.88,0,0,0,.13.31ZM283.55,5.19V10.4c2.51,0,5,0,7.46,0a1.92,1.92,0,0,0,1.86-1.68,10.86,10.86,0,0,0,0-1.4,2,2,0,0,0-2.11-2.12c-1.49,0-3,0-4.47,0Z"/><path class="cls-1" d="M112,65c-.6,0-1.2-.06-1.8-.07a4.69,4.69,0,0,1-3.66-1.76,3.68,3.68,0,0,1-.88-2.46c0-3.53.07-7.06,0-10.58a4.53,4.53,0,0,1,4.19-4.51c1.84,0,3.68-.05,5.51,0a4.34,4.34,0,0,1,4,4.29c0,.32,0,.64,0,1h-3.53c0-.11,0-.2,0-.29a1.25,1.25,0,0,0-1.3-1.4c-1.25,0-2.49,0-3.73,0a1.56,1.56,0,0,0-1.52,1.64v8.74a1.6,1.6,0,0,0,1.66,1.7h3.27a1.62,1.62,0,0,0,1.62-1.63V57.17c0-.12,0-.25,0-.4h-3.47V53.41h7v.45c0,2.18-.06,4.36,0,6.53a4.46,4.46,0,0,1-4.46,4.52c-.38,0-.76,0-1.14.07Z"/><path class="cls-1" d="M248.21,27.58h-5V11.66l-.08,0-6.57,12-6.58-12-.08,0V27.57h-5.05V.05H227c.84,0,1.69,0,2.53,0a.51.51,0,0,1,.53.33q3.15,5.94,6.32,11.88l.23.39c.36-.67.69-1.29,1-1.92Q240.31,5.56,243,.36a.46.46,0,0,1,.5-.31h4.68Z"/><path class="cls-1" d="M195.48.05h3.32c.43,0,.86,0,1.29,0a.59.59,0,0,1,.64.39L207,12.2l.26.45.37-.68q3-5.81,6.1-11.61a.57.57,0,0,1,.38-.29c1.57,0,3.14,0,4.7,0l.1,0V27.57h-5V11.65l-.09,0-6.57,12-6.57-12h-.06V27.57h-5.1Z"/><path class="cls-1" d="M71,27.6V.05H84.21A6.34,6.34,0,0,1,90.36,5.2a7.7,7.7,0,0,1,.06,1.36c0,4.89,0,9.79,0,14.69a6.1,6.1,0,0,1-3.05,5.41,5.89,5.89,0,0,1-3.31.95c-4.19,0-8.39,0-12.59,0Zm5-5.17.11,0c2.35,0,4.69,0,7,0a2.42,2.42,0,0,0,2.21-2.37c0-4.21,0-8.42,0-12.63A1.89,1.89,0,0,0,85,6.23a2.62,2.62,0,0,0-2.11-1.05H76Z"/><path class="cls-1" d="M115.48,7.66h-5c0-.27,0-.52,0-.78a1.21,1.21,0,0,0-.64-1.2,3.54,3.54,0,0,0-1.44-.47c-1.66-.06-3.32,0-5,0a2.37,2.37,0,0,0-2,1.06,1.88,1.88,0,0,0-.32,1c0,4.35,0,8.7,0,13.06a2.21,2.21,0,0,0,2.15,2.14c1.71,0,3.42,0,5.13,0a2.31,2.31,0,0,0,2.06-1.92c.06-1.49,0-3,0-4.54h-5V11.2h10.11v.48c0,3.21,0,6.43,0,9.64a6.16,6.16,0,0,1-5.26,6.17,29.46,29.46,0,0,1-4,.17c-1.39,0-2.79,0-4.19-.06-2.8-.07-6.12-2.59-6.07-6.13.08-4.9,0-9.79,0-14.69a6.16,6.16,0,0,1,.54-3.06A6.44,6.44,0,0,1,102.46.06c2.33,0,4.66,0,7,0a6.36,6.36,0,0,1,6,5A15.68,15.68,0,0,1,115.48,7.66Z"/><path class="cls-1" d="M19.11,8h-5a1.45,1.45,0,0,1,0-.36,2,2,0,0,0-1.17-2,3,3,0,0,0-1.28-.38c-1.51,0-3,0-4.54,0a2.61,2.61,0,0,0-1.83.74,1.72,1.72,0,0,0-.59,1.38v.93a1.88,1.88,0,0,0,1.36,2,12.2,12.2,0,0,0,2.17.4c2.1.25,4.22.41,6.32.72A5.47,5.47,0,0,1,19.08,16a3.76,3.76,0,0,1,0,.58c0,1.63,0,3.27,0,4.9a6,6,0,0,1-4.81,6,6.59,6.59,0,0,1-1.53.17c-2.3,0-4.59,0-6.88,0A6.33,6.33,0,0,1-.38,21.4c0-.65,0-1.3,0-2H4.67c0,.22,0,.43,0,.65A2.28,2.28,0,0,0,7,22.44c1.56,0,3.13,0,4.7,0A2.45,2.45,0,0,0,14.08,20a10.3,10.3,0,0,1,0-1.47,2.58,2.58,0,0,0-1.8-2.71,9.2,9.2,0,0,0-2.18-.47c-2-.28-3.95-.42-5.88-.8A5.55,5.55,0,0,1-.11,10.89,4,4,0,0,1-.35,9.56c0-1.2-.07-2.41,0-3.61A6.12,6.12,0,0,1,3.08.76,6.13,6.13,0,0,1,6.17,0H12.9a6.63,6.63,0,0,1,6,4.41,5.76,5.76,0,0,1,.22,1.37C19.14,6.49,19.11,7.21,19.11,8Z"/><path class="cls-1" d="M52,5.19v4.86h9.38v5.1H52v7.29H66.25v5.13H46.93V.08H66.16V5.19Z"/><path class="cls-1" d="M268.71,15.16h-9.35v7.28h14.25v5.13h-19.3V.07h19.23V5.18H259.35v4.87h9.36Z"/><path class="cls-1" d="M140.45,5.19H126.26v4.86h9.35v5.1h-9.36v7.29h14.27v5.13H121.21V.08h19.24Z"/><path class="cls-1" d="M184.76,0,192,27.61h-5.87c-.5-2.31-1-4.6-1.51-6.9h-9.29c-.18.85-.37,1.72-.55,2.58-.29,1.34-.58,2.68-.85,4,0,.19-.1.29-.32.28h-5.05a.86.86,0,0,1-.18,0c.25-1,.49-1.94.74-2.9q2.63-10.26,5.27-20.52c.33-1.26.66-2.52,1-3.79.05-.21.12-.3.35-.3l8.86,0Zm-6.27,5.17-2.11,10.62h7.22c-.1-.49-.2-1-.29-1.43q-.93-4.44-1.87-8.88c0-.12-.16-.3-.24-.3C180.31,5.18,179.42,5.19,178.49,5.19Z"/><path class="cls-1" d="M159.66,27.57V15.19H150.3V27.58h-5.06V.08h5V10h9.42V.08h5V27.57Z"/><path class="cls-1" d="M157.1,45.58v19.3h-3.55V53.8l-.08,0-4.58,8.35c-1.53-2.8-3-5.56-4.54-8.31h-.09V64.89h-3.57V45.61l.41,0c.91,0,1.82,0,2.73,0a.53.53,0,0,1,.56.34l4.41,8.29s.07.11.12.21c.45-.85.89-1.67,1.32-2.5q1.57-3,3.14-6a.52.52,0,0,1,.54-.32C155,45.6,156,45.58,157.1,45.58Z"/><path class="cls-1" d="M29.71,22.47H43.17v5.11H24.73V.08h5Z"/><path class="cls-1" d="M175.29,61.27v3.58H161.76V45.61h13.46v3.56H165.3v3.42h6.54v3.59h-6.55v5.09Z"/><path class="cls-1" d="M178.53,59.15h3.53v.49a1.56,1.56,0,0,0,1.51,1.61c1.16,0,2.33,0,3.49,0a1.69,1.69,0,0,0,1.59-1.62c0-.45,0-.9,0-1.36a2.07,2.07,0,0,0-1.82-1.84c-1.38-.2-2.77-.38-4.16-.54a5,5,0,0,1-3-1.2,3.32,3.32,0,0,1-1.18-2.37c0-.89,0-1.79,0-2.68a4.43,4.43,0,0,1,3.82-4,28.73,28.73,0,0,1,3.22-.08,22.24,22.24,0,0,1,2.83.08,4.38,4.38,0,0,1,3.71,3.44,14.06,14.06,0,0,1,0,2.06h-3.48a1.67,1.67,0,0,0-1.3-1.88,1.26,1.26,0,0,0-.38-.06c-1.09,0-2.18,0-3.27,0a1.57,1.57,0,0,0-1.64,1.74,3.74,3.74,0,0,0,.06.89,1.45,1.45,0,0,0,1.3,1c1.36.18,2.72.32,4.09.47a6.48,6.48,0,0,1,2.66.62,3.69,3.69,0,0,1,2,3.35c0,1.07,0,2.13,0,3.19a4.26,4.26,0,0,1-4.2,4.4c-1.78.08-3.57.06-5.36,0a4.41,4.41,0,0,1-4.1-4.26C178.52,60.15,178.53,59.67,178.53,59.15Z"/><path class="cls-1" d="M125.53,64.89h-3.84l5-19.28.3,0,5.87,0c.25,0,.38.05.46.33q2.43,9.39,4.9,18.77c0,.07,0,.15,0,.25h-4.09l-.66-3c-.11-.5-.22-1-.32-1.51-.05-.23-.14-.32-.39-.32h-5.87c-.27,0-.34.12-.39.35-.29,1.38-.58,2.76-.88,4.14C125.6,64.64,125.57,64.75,125.53,64.89Zm6.84-8.26-1.54-7.42h-2l-1.47,7.42Z"/><path class="cls-1" d="M201.61,46.26c.47,0,.91,0,1.34,0,.1,0,.23.17.28.29.38,1,.76,2.09,1.13,3.14l.12.28.9-2.47.21-.59c.24-.66.24-.66,1-.66h.76v5.28h-.94V47.67l-.08,0a1.75,1.75,0,0,0-.11.24c-.38,1.08-.75,2.17-1.12,3.26-.08.27-.16.46-.51.43s-.53,0-.66-.4c-.38-1.21-.81-2.4-1.28-3.59v3.95h-1Z"/><path class="cls-1" d="M196.2,47.18v-.9h4.49v.87H199v4.4h-1.08V47.18Z"/></svg>